<svg width="20" height="20" viewBox="0 0 20 20" fill="none" xmlns="http://www.w3.org/2000/svg">
<path d="M19.1663 18.9585L0.833008 18.9585C0.491341 18.9585 0.208008 18.6752 0.208008 18.3335C0.208008 17.9918 0.491341 17.7085 0.833008 17.7085L19.1663 17.7085C19.508 17.7085 19.7913 17.9918 19.7913 18.3335C19.7913 18.6752 19.508 18.9585 19.1663 18.9585Z" fill="#0A2E65" fill-opacity="0.5"/>
<path d="M16.4834 18.9667C16.1417 18.9667 15.8584 18.6834 15.8584 18.3417L15.8584 14.625C15.8584 14.2833 16.1417 14 16.4834 14C16.8251 14 17.1084 14.2833 17.1084 14.625L17.1084 18.3417C17.1084 18.6834 16.8334 18.9667 16.4834 18.9667Z" fill="#0A2E65" fill-opacity="0.5"/>
<path d="M16.5003 15.2502C15.142 15.2502 14.042 14.1502 14.042 12.7919L14.042 10.9002C14.042 9.5419 15.142 8.44189 16.5003 8.44189C17.8587 8.44189 18.9587 9.5419 18.9587 10.9002L18.9587 12.7919C18.9587 14.1502 17.8587 15.2502 16.5003 15.2502ZM16.5003 9.70024C15.8337 9.70024 15.292 10.2419 15.292 10.9086L15.292 12.8002C15.292 13.4669 15.8337 14.0086 16.5003 14.0086C17.167 14.0086 17.7087 13.4669 17.7087 12.8002L17.7087 10.9086C17.7087 10.2419 17.167 9.70024 16.5003 9.70024Z" fill="#0A2E65" fill-opacity="0.5"/>
<path d="M11.9162 18.9583C11.5745 18.9583 11.2912 18.675 11.2912 18.3333L11.2912 5.02498C11.2912 3.69998 10.7329 3.1333 9.43286 3.1333L4.24121 3.1333C2.93288 3.1333 2.36621 3.69998 2.36621 5.02498L2.36621 18.3333C2.36621 18.675 2.08288 18.9583 1.74121 18.9583C1.39954 18.9583 1.11621 18.675 1.11621 18.3333L1.11621 5.02498C1.11621 2.99998 2.22454 1.8833 4.24121 1.8833L9.43286 1.8833C11.4412 1.8833 12.5412 2.99998 12.5412 5.02498L12.5412 18.3333C12.5412 18.675 12.2578 18.9583 11.9162 18.9583Z" fill="#0A2E65" fill-opacity="0.5"/>
<path d="M8.95802 7.5L4.83301 7.5C4.49134 7.5 4.20801 7.21667 4.20801 6.875C4.20801 6.53333 4.49134 6.25 4.83301 6.25L8.95802 6.25C9.29968 6.25 9.58302 6.53333 9.58302 6.875C9.58302 7.21667 9.29968 7.5 8.95802 7.5Z" fill="#0A2E65" fill-opacity="0.5"/>
<path d="M8.95802 10.625L4.83301 10.625C4.49134 10.625 4.20801 10.3417 4.20801 10C4.20801 9.65833 4.49134 9.375 4.83301 9.375L8.95802 9.375C9.29968 9.375 9.58302 9.65833 9.58302 10C9.58302 10.3417 9.29968 10.625 8.95802 10.625Z" fill="#0A2E65" fill-opacity="0.5"/>
<path d="M6.875 18.9585C6.53333 18.9585 6.25 18.6752 6.25 18.3335L6.25 15.2085C6.25 14.8668 6.53333 14.5835 6.875 14.5835C7.21667 14.5835 7.5 14.8668 7.5 15.2085L7.5 18.3335C7.5 18.6752 7.21667 18.9585 6.875 18.9585Z" fill="#0A2E65" fill-opacity="0.5"/>
</svg>
